<svg width="20" height="18" xmlns="http://www.w3.org/2000/svg"><g fill="currentColor"><path d="M2.82 10.697 14.4.427a1.395 1.395 0 0 1 2.009.156l3.05 3.695c.503.61.415 1.51-.196 2.01L6.836 16.463c-.46.376-1.255.685-1.848.718l-4.1.223a.74.74 0 0 1-.747-1.027l1.574-4.088c.203-.527.682-1.216 1.105-1.592Zm2.106 5.342c.35-.019.913-.237 1.186-.46L18.539 5.403a.282.282 0 0 0 .039-.398l-3.05-3.695a.25.25 0 0 0-.369-.028L3.578 11.553c-.286.253-.66.79-.796 1.147l-1.36 3.53 3.504-.19Z"/><path d="m11.789 3.78.875-.734 3.935 4.683-.875.735z"/></g></svg>